<svg aria-hidden="true" style="position:absolute;width:0;height:0;overflow:hidden" xmlns="http://www.w3.org/2000/svg">
    <defs>
    
<symbol id="mobilemenu-btn" viewBox="0 0 36 32">
<path fill="#fcfcfb" style="fill: var(--color1, #fcfcfb)" d="M0 0h36v4h-36v-4zM0 14h36v4h-36v-4zM0 28h36v4h-36v-4z"></path>
</symbol>
<symbol id="close_24px" viewBox="0 0 32 32">
<path d="M31.439 3.166l-3.166-3.166-12.554 12.552-12.552-12.552-3.166 3.166 12.552 12.552-12.552 12.554 3.166 3.166 12.552-12.554 12.554 12.554 3.166-3.166-12.554-12.554 12.554-12.552z"></path>
</symbol>
<symbol id="nice-view" viewBox="0 0 41 32">
<path fill="#fcfcfb" style="fill: var(--color1, #fcfcfb)" d="M12.278 0.376v12.011h-1.407l-6.546-9.431h-0.118v9.431h-1.454v-12.011h1.408l6.568 9.454h0.118v-9.455h1.431zM16.643 0.376v12.011h-1.455v-12.011h1.455zM29.225 4.129h-1.455c-0.155-0.789-0.6-1.454-1.216-1.893l-0.009-0.006c-0.287-0.21-0.62-0.379-0.979-0.487l-0.023-0.006c-0.341-0.105-0.733-0.165-1.138-0.165-0.004 0-0.008 0-0.012 0h0.001c-0.012-0-0.027-0-0.042-0-0.717 0-1.385 0.206-1.95 0.561l0.015-0.009c-0.586 0.367-1.053 0.908-1.402 1.625-0.344 0.715-0.516 1.593-0.516 2.632 0 1.041 0.172 1.919 0.516 2.634 0.349 0.715 0.815 1.257 1.402 1.625 0.549 0.346 1.217 0.551 1.933 0.551 0.015 0 0.031-0 0.046-0l-0.002 0c0.398 0 0.782-0.055 1.15-0.165 0.382-0.114 0.715-0.279 1.012-0.492l-0.010 0.007c0.623-0.451 1.067-1.117 1.223-1.887l0.003-0.020h1.454c-0.106 0.619-0.316 1.173-0.611 1.67l0.012-0.022c-0.289 0.485-0.648 0.898-1.079 1.239-0.413 0.324-0.894 0.585-1.416 0.757l-0.033 0.010c-0.498 0.168-1.073 0.264-1.669 0.264-0.013 0-0.026-0-0.039-0h0.002c-1.024 0-1.935-0.25-2.733-0.75-0.797-0.501-1.425-1.212-1.882-2.135-0.458-0.923-0.686-2.018-0.686-3.285s0.228-2.362 0.686-3.285c0.457-0.923 1.084-1.634 1.882-2.135s1.709-0.75 2.733-0.75c0.606 0 1.175 0.088 1.707 0.263 0.535 0.175 1.018 0.434 1.448 0.774 0.429 0.337 0.79 0.747 1.079 1.231 0.289 0.481 0.489 1.031 0.599 1.649zM31.576 12.387v-12.011h7.25v1.29h-5.795v4.058h5.419v1.29h-5.419v4.083h5.888v1.29h-7.341zM2.052 19.989l3.566 10.111h0.14l3.565-10.111h1.526l-4.411 12.011h-1.502l-4.41-12.011h1.525zM14.175 19.989v12.011h-1.454v-12.011h1.455zM17.092 32v-12.011h7.249v1.29h-5.794v4.058h5.419v1.29h-5.419v4.083h5.888v1.29h-7.342zM29.145 32l-3.285-12.011h1.478l2.51 9.783h0.117l2.557-9.783h1.642l2.558 9.783h0.117l2.51-9.783h1.478l-3.285 12.011h-1.501l-2.652-9.572h-0.093l-2.652 9.572h-1.501z"></path>
</symbol>
<symbol id="vector-cross" viewBox="0 0 32 32">
<path fill="#f5f5f5" style="fill: var(--color1, #f5f5f5)" d="M16 12.464l12.374-12.374 3.536 3.534-12.376 12.376 12.376 12.374-3.536 3.536-12.374-12.376-12.376 12.376-3.534-3.536 12.374-12.374-12.374-12.376 3.534-3.534 12.376 12.374z"></path>
</symbol>
<symbol id="phone" viewBox="0 0 32 32">
<path fill="none" stroke="#fcfcfb" style="stroke: var(--color1, #fcfcfb)" stroke-linejoin="round" stroke-linecap="round" stroke-miterlimit="4" stroke-width="1.6" d="M29.376 21.024c-1.985-0.247-3.697-0.558-5.376-0.955l0.336 0.067c-0.235-0.081-0.506-0.128-0.788-0.128-0.616 0-1.18 0.224-1.615 0.595l0.003-0.003c-0.424 0.432-1.648 1.64-2.92 2.888-4.577-2.284-8.199-5.909-10.42-10.355l-0.060-0.133c1.24-1.272 2.4-2.488 2.872-2.912 0.368-0.431 0.592-0.995 0.592-1.611 0-0.282-0.047-0.553-0.133-0.806l0.005 0.018c-0.33-1.346-0.642-3.061-0.863-4.803l-0.025-0.245c-0.086-0.81-0.766-1.435-1.591-1.435-0.088 0-0.174 0.007-0.258 0.021l0.009-0.001h-6.816c-0.581 0.054-1.038 0.514-1.088 1.092l-0 0.004c-0.44 6.152 2.992 12.736 3.688 14v0.048l0.096 0.184c2.491 4.32 6.080 7.909 10.4 10.4v0l0.352 0.2c1.6 0.848 7.96 4.048 13.904 3.608 0.588-0.042 1.057-0.502 1.112-1.083l0-0.005v-6.808c0.012-0.075 0.019-0.161 0.019-0.248 0-0.826-0.625-1.505-1.428-1.591l-0.007-0.001z"></path>
</symbol>
<symbol id="arcticons_spike-email" viewBox="0 0 32 32">
<path fill="none" stroke="#fcfcfb" style="stroke: var(--color1, #fcfcfb)" stroke-linejoin="round" stroke-linecap="round" stroke-miterlimit="4" stroke-width="1.3333" d="M25.148 27.035c0.356-0.296 0.699-0.608 1.025-0.937M23.88 16c-0.004-4.345-3.528-7.866-7.873-7.866-4.348 0-7.873 3.525-7.873 7.873 0 0.003 0 0.005 0 0.008v-0c0.004 4.345 3.527 7.867 7.873 7.867 4.348 0 7.873-3.525 7.873-7.873 0-0.002 0-0.005 0-0.007v0z"></path>
<path fill="none" stroke="#fcfcfb" style="stroke: var(--color1, #fcfcfb)" stroke-linejoin="round" stroke-linecap="round" stroke-miterlimit="4" stroke-width="1.3333" d="M30.333 16c0-0.007 0-0.016 0-0.025 0-7.916-6.417-14.333-14.333-14.333s-14.333 6.417-14.333 14.333c0 2.83 0.82 5.469 2.236 7.691l-0.035-0.058-0.889 5.413 5.413-0.889c2.161 1.381 4.796 2.201 7.623 2.201 2.009 0 3.921-0.414 5.656-1.162l-0.093 0.036"></path>
<path fill="none" stroke="#fcfcfb" style="stroke: var(--color1, #fcfcfb)" stroke-linejoin="round" stroke-linecap="round" stroke-miterlimit="4" stroke-width="1.3333" d="M23.429 18.624c-0.963 2.348 0.605 3.612 1.953 3.919 1.645 0.373 4.951-1.347 4.951-6.543"></path>
</symbol>
<symbol id="geo" viewBox="0 0 23 32">
<path fill="none" stroke="#fcfcfb" style="stroke: var(--color1, #fcfcfb)" stroke-linejoin="round" stroke-linecap="round" stroke-miterlimit="4" stroke-width="1.4545" d="M11.636 1.818c-5.953 0-10.778 4.826-10.778 10.778v0 0.785c0.436 5.905 5.338 10.655 10.778 16.8 5.68-6.415 10.778-11.273 10.778-17.585 0-5.953-4.826-10.778-10.778-10.778v0zM11.636 7.418c2.864 0 5.185 2.322 5.185 5.185s-2.322 5.185-5.185 5.185v0c-2.864 0-5.185-2.322-5.185-5.185s2.322-5.185 5.185-5.185v0z"></path>
</symbol>
<symbol id="logo-header" viewBox="0 0 32 32">
<path fill="#fcfcfb" style="fill: var(--color1, #fcfcfb)" d="M11.368 6.494v6.649h-0.779l-3.623-5.221h-0.065v5.221h-0.805v-6.649h0.779l3.636 5.234h0.065v-5.234h0.792z"></path>
<path fill="#fcfcfb" style="fill: var(--color1, #fcfcfb)" d="M13.785 6.494v6.649h-0.805v-6.649h0.805z"></path>
<path fill="#fcfcfb" style="fill: var(--color1, #fcfcfb)" d="M20.75 8.571h-0.805c-0.048-0.232-0.131-0.435-0.25-0.61-0.117-0.175-0.26-0.322-0.429-0.442-0.167-0.121-0.352-0.212-0.555-0.273s-0.416-0.091-0.636-0.091c-0.403 0-0.767 0.102-1.094 0.305-0.325 0.203-0.583 0.503-0.776 0.899-0.19 0.396-0.286 0.882-0.286 1.458s0.095 1.062 0.286 1.458c0.193 0.396 0.451 0.696 0.776 0.899 0.327 0.203 0.692 0.305 1.094 0.305 0.221 0 0.433-0.030 0.636-0.091s0.389-0.15 0.555-0.27c0.169-0.121 0.312-0.27 0.429-0.445 0.119-0.178 0.202-0.381 0.25-0.61h0.805c-0.061 0.34-0.171 0.644-0.331 0.912s-0.359 0.497-0.597 0.685c-0.238 0.186-0.505 0.328-0.802 0.425-0.294 0.097-0.609 0.146-0.945 0.146-0.567 0-1.071-0.139-1.513-0.416s-0.789-0.671-1.042-1.182c-0.253-0.511-0.38-1.117-0.38-1.818s0.127-1.307 0.38-1.818c0.253-0.511 0.601-0.905 1.042-1.182s0.946-0.416 1.513-0.416c0.335 0 0.65 0.049 0.945 0.146 0.296 0.097 0.564 0.24 0.802 0.429 0.238 0.186 0.437 0.413 0.597 0.682 0.16 0.266 0.271 0.57 0.331 0.912z"></path>
<path fill="#fcfcfb" style="fill: var(--color1, #fcfcfb)" d="M22.051 13.143v-6.649h4.013v0.714h-3.208v2.247h3v0.714h-3v2.26h3.26v0.714h-4.065z"></path>
<path fill="#fcfcfb" style="fill: var(--color1, #fcfcfb)" d="M5.707 17.351l1.974 5.597h0.078l1.974-5.597h0.844l-2.442 6.649h-0.831l-2.442-6.649h0.844z"></path>
<path fill="#fcfcfb" style="fill: var(--color1, #fcfcfb)" d="M12.418 17.351v6.649h-0.805v-6.649h0.805z"></path>
<path fill="#fcfcfb" style="fill: var(--color1, #fcfcfb)" d="M14.033 24v-6.649h4.013v0.714h-3.208v2.247h3v0.714h-3v2.26h3.26v0.714h-4.065z"></path>
<path fill="#fcfcfb" style="fill: var(--color1, #fcfcfb)" d="M20.705 24l-1.818-6.649h0.818l1.39 5.416h0.065l1.416-5.416h0.909l1.416 5.416h0.065l1.39-5.416h0.818l-1.818 6.649h-0.831l-1.468-5.299h-0.052l-1.468 5.299h-0.831z"></path>
</symbol>

<symbol id="akar-icons_facebook-fill" viewBox="0 0 32 32">
<path fill="#fcfcfb" style="fill: var(--color1, #fcfcfb)" d="M0 16.089c0 7.955 5.777 14.569 13.333 15.911v-11.556h-4v-4.444h4v-3.556c0-4 2.577-6.221 6.223-6.221 1.155 0 2.4 0.177 3.555 0.355v4.089h-2.044c-1.956 0-2.4 0.977-2.4 2.223v3.111h4.267l-0.711 4.444h-3.556v11.556c7.556-1.341 13.333-7.955 13.333-15.911 0-8.849-7.2-16.089-16-16.089s-16 7.24-16 16.089z"></path>
</symbol>
<symbol id="lucide_twitter" viewBox="0 0 32 32">
<path fill="none" stroke="#fcfcfb" style="stroke: var(--color1, #fcfcfb)" stroke-linejoin="round" stroke-linecap="round" stroke-miterlimit="4" stroke-width="2.6667" d="M32 5.344s-1.027 2.799-2.933 4.531c2.347 13.327-13.787 23.056-26.4 15.46 3.227 0.133 6.453-0.8 8.8-2.667-7.333-1.997-11-9.86-7.333-15.991 3.227 3.467 8.213 5.464 13.2 5.331-1.32-5.597 5.867-8.795 10.267-5.064 1.613 0 4.4-1.6 4.4-1.6z"></path>
</symbol>
<symbol id="insta" viewBox="0 0 32 32">
<path fill="#fcfcfb" style="fill: var(--color1, #fcfcfb)" d="M9.953 1.421c1.564-0.072 2.063-0.088 6.047-0.088s4.483 0.017 6.045 0.088c1.563 0.071 2.629 0.32 3.563 0.681 0.977 0.369 1.864 0.947 2.597 1.693 0.747 0.732 1.323 1.617 1.691 2.596 0.363 0.933 0.611 2 0.683 3.56 0.072 1.567 0.088 2.065 0.088 6.048 0 3.984-0.017 4.483-0.088 6.047-0.071 1.56-0.32 2.627-0.683 3.56-0.389 1.017-0.964 1.884-1.69 2.598l-0.001 0.001c-0.733 0.747-1.62 1.323-2.597 1.691-0.933 0.363-2 0.611-3.56 0.683-1.565 0.072-2.064 0.088-6.048 0.088s-4.483-0.017-6.047-0.088c-1.56-0.071-2.627-0.32-3.56-0.683-1.017-0.389-1.884-0.964-2.598-1.69l-0.001-0.001c-0.727-0.714-1.303-1.581-1.675-2.548l-0.017-0.049c-0.361-0.933-0.609-2-0.681-3.56-0.072-1.567-0.088-2.065-0.088-6.048 0-3.984 0.017-4.483 0.088-6.045s0.32-2.629 0.681-3.563c0.39-1.016 0.966-1.883 1.692-2.596l0.001-0.001c0.714-0.727 1.58-1.303 2.547-1.675l0.049-0.017c0.933-0.361 2-0.609 3.56-0.681h0.001zM21.927 4.061c-1.547-0.071-2.011-0.085-5.927-0.085s-4.38 0.015-5.927 0.085c-1.431 0.065-2.207 0.304-2.724 0.505-0.684 0.267-1.173 0.583-1.687 1.096-0.475 0.462-0.848 1.025-1.086 1.655l-0.010 0.031c-0.201 0.517-0.44 1.293-0.505 2.724-0.071 1.547-0.085 2.011-0.085 5.927s0.015 4.38 0.085 5.927c0.065 1.431 0.304 2.207 0.505 2.724 0.235 0.636 0.609 1.213 1.096 1.687 0.473 0.487 1.051 0.861 1.687 1.096 0.517 0.201 1.293 0.44 2.724 0.505 1.547 0.071 2.009 0.085 5.927 0.085s4.38-0.015 5.927-0.085c1.431-0.065 2.207-0.304 2.724-0.505 0.684-0.267 1.173-0.583 1.687-1.096 0.487-0.473 0.861-1.051 1.096-1.687 0.201-0.517 0.44-1.293 0.505-2.724 0.071-1.547 0.085-2.011 0.085-5.927s-0.015-4.38-0.085-5.927c-0.065-1.431-0.304-2.207-0.505-2.724-0.267-0.684-0.583-1.173-1.096-1.687-0.462-0.474-1.025-0.848-1.655-1.086l-0.031-0.010c-0.517-0.201-1.293-0.44-2.724-0.505zM14.127 20.521c0.554 0.236 1.198 0.373 1.874 0.373 2.703 0 4.893-2.191 4.893-4.893 0-2.112-1.338-3.911-3.212-4.597l-0.034-0.011c-0.49-0.181-1.057-0.286-1.648-0.286-2.703 0-4.893 2.191-4.893 4.893 0 2.026 1.232 3.765 2.988 4.508l0.032 0.012zM10.669 10.669c1.364-1.364 3.249-2.208 5.331-2.208 4.163 0 7.539 3.375 7.539 7.539 0 2.082-0.844 3.966-2.208 5.331v0c-1.364 1.364-3.249 2.208-5.331 2.208-4.163 0-7.539-3.375-7.539-7.539 0-2.082 0.844-3.966 2.208-5.331v0zM25.211 9.584c0.345-0.326 0.559-0.786 0.559-1.296 0-0.984-0.798-1.782-1.782-1.782-0.474 0-0.904 0.185-1.224 0.487l0.001-0.001c-0.345 0.326-0.559 0.786-0.559 1.296 0 0.984 0.798 1.782 1.782 1.782 0.474 0 0.904-0.185 1.224-0.487l-0.001 0.001z"></path>
</symbol>
<symbol id="utube" viewBox="0 0 32 32">
<path fill="#fcfcfb" style="fill: var(--color1, #fcfcfb)" d="M29.384 5.513c-0.867-0.651-3.28-1.513-13.392-1.513-10.837 0-12.445 0.991-12.96 1.316-2.748 1.72-3.009 9.332-3.032 10.876 0.033 2.039 0.349 8.821 3.029 10.499 0.515 0.324 2.113 1.309 12.963 1.309 10.12 0 12.529-0.859 13.392-1.507 2.34-1.755 2.609-7.799 2.616-10.328-0.007-2.035-0.211-8.847-2.616-10.653zM28.217 24.804c-0.348 0.261-2.347 1.113-12.227 1.113-9.549 0-11.553-0.773-11.932-1.011-0.964-0.603-1.981-3.803-2.061-8.72 0.080-4.908 1.111-8.491 2.064-9.085 0.379-0.24 2.391-1.019 11.931-1.019 9.869 0 11.875 0.859 12.225 1.12 0.856 0.643 1.771 4.025 1.785 8.969-0.013 5.021-0.936 7.995-1.787 8.632zM22.505 15.181l-8.987-5.749c-0.146-0.093-0.325-0.149-0.516-0.149-0.181 0-0.351 0.050-0.496 0.137l0.004-0.002c-0.156 0.093-0.282 0.222-0.369 0.376l-0.003 0.005c-0.086 0.151-0.136 0.331-0.136 0.524 0 0.001 0 0.001 0 0.002v-0 11.5c0 0.276 0.105 0.541 0.293 0.736 0.177 0.188 0.428 0.305 0.706 0.305 0.192 0 0.37-0.056 0.521-0.151l-0.004 0.002 8.987-5.752c0.292-0.19 0.483-0.515 0.483-0.885 0-0.002 0-0.004-0-0.006v0c0-0.003 0-0.007 0-0.010 0-0.369-0.19-0.693-0.477-0.881l-0.004-0.002zM14 19.98v-7.813l6.057 3.907-6.056 3.907z"></path>

<symbol id="icon-youtube" viewBox="0 0 32 32">
<path d="M29.384 5.513c-0.867-0.651-3.28-1.513-13.392-1.513-10.837 0-12.445 0.991-12.96 1.316-2.748 1.72-3.009 9.332-3.032 10.876 0.033 2.039 0.349 8.821 3.029 10.499 0.515 0.324 2.113 1.309 12.963 1.309 10.12 0 12.529-0.859 13.392-1.507 2.34-1.755 2.609-7.799 2.616-10.328-0.007-2.035-0.211-8.847-2.616-10.653zM28.217 24.804c-0.348 0.261-2.347 1.113-12.227 1.113-9.549 0-11.553-0.773-11.932-1.011-0.964-0.603-1.981-3.803-2.061-8.72 0.080-4.908 1.111-8.491 2.064-9.085 0.379-0.24 2.391-1.019 11.931-1.019 9.869 0 11.875 0.859 12.225 1.12 0.856 0.643 1.771 4.025 1.785 8.969-0.013 5.021-0.936 7.995-1.787 8.632zM22.505 15.181l-8.987-5.749c-0.146-0.093-0.325-0.149-0.516-0.149-0.181 0-0.351 0.050-0.496 0.137l0.004-0.002c-0.156 0.093-0.282 0.222-0.369 0.376l-0.003 0.005c-0.086 0.151-0.136 0.331-0.136 0.524 0 0.001 0 0.001 0 0.002v-0 11.5c0 0.276 0.105 0.541 0.293 0.736 0.177 0.188 0.428 0.305 0.706 0.305 0.192 0 0.37-0.056 0.521-0.151l-0.004 0.002 8.987-5.752c0.292-0.19 0.483-0.515 0.483-0.885 0-0.002 0-0.004-0-0.006v0c0-0.003 0-0.007 0-0.010 0-0.369-0.19-0.693-0.477-0.881l-0.004-0.002zM14 19.98v-7.813l6.057 3.907-6.056 3.907z"></path>
</symbol>
<symbol id="icon-instagram" viewBox="0 0 32 32">
<path d="M9.953 1.421c1.564-0.072 2.063-0.088 6.047-0.088s4.483 0.017 6.045 0.088c1.563 0.071 2.629 0.32 3.563 0.681 0.977 0.369 1.864 0.947 2.597 1.693 0.747 0.732 1.323 1.617 1.691 2.596 0.363 0.933 0.611 2 0.683 3.56 0.072 1.567 0.088 2.065 0.088 6.048 0 3.984-0.017 4.483-0.088 6.047-0.071 1.56-0.32 2.627-0.683 3.56-0.389 1.017-0.964 1.884-1.69 2.598l-0.001 0.001c-0.733 0.747-1.62 1.323-2.597 1.691-0.933 0.363-2 0.611-3.56 0.683-1.565 0.072-2.064 0.088-6.048 0.088s-4.483-0.017-6.047-0.088c-1.56-0.071-2.627-0.32-3.56-0.683-1.017-0.389-1.884-0.964-2.598-1.69l-0.001-0.001c-0.727-0.714-1.303-1.581-1.675-2.548l-0.017-0.049c-0.361-0.933-0.609-2-0.681-3.56-0.072-1.567-0.088-2.065-0.088-6.048 0-3.984 0.017-4.483 0.088-6.045s0.32-2.629 0.681-3.563c0.39-1.016 0.966-1.883 1.692-2.596l0.001-0.001c0.714-0.727 1.58-1.303 2.547-1.675l0.049-0.017c0.933-0.361 2-0.609 3.56-0.681h0.001zM21.927 4.061c-1.547-0.071-2.011-0.085-5.927-0.085s-4.38 0.015-5.927 0.085c-1.431 0.065-2.207 0.304-2.724 0.505-0.684 0.267-1.173 0.583-1.687 1.096-0.475 0.462-0.848 1.025-1.086 1.655l-0.010 0.031c-0.201 0.517-0.44 1.293-0.505 2.724-0.071 1.547-0.085 2.011-0.085 5.927s0.015 4.38 0.085 5.927c0.065 1.431 0.304 2.207 0.505 2.724 0.235 0.636 0.609 1.213 1.096 1.687 0.473 0.487 1.051 0.861 1.687 1.096 0.517 0.201 1.293 0.44 2.724 0.505 1.547 0.071 2.009 0.085 5.927 0.085s4.38-0.015 5.927-0.085c1.431-0.065 2.207-0.304 2.724-0.505 0.684-0.267 1.173-0.583 1.687-1.096 0.487-0.473 0.861-1.051 1.096-1.687 0.201-0.517 0.44-1.293 0.505-2.724 0.071-1.547 0.085-2.011 0.085-5.927s-0.015-4.38-0.085-5.927c-0.065-1.431-0.304-2.207-0.505-2.724-0.267-0.684-0.583-1.173-1.096-1.687-0.462-0.474-1.025-0.848-1.655-1.086l-0.031-0.010c-0.517-0.201-1.293-0.44-2.724-0.505zM14.127 20.521c0.554 0.236 1.198 0.373 1.874 0.373 2.703 0 4.893-2.191 4.893-4.893 0-2.112-1.338-3.911-3.212-4.597l-0.034-0.011c-0.49-0.181-1.057-0.286-1.648-0.286-2.703 0-4.893 2.191-4.893 4.893 0 2.026 1.232 3.765 2.988 4.508l0.032 0.012zM10.669 10.669c1.364-1.364 3.249-2.208 5.331-2.208 4.163 0 7.539 3.375 7.539 7.539 0 2.082-0.844 3.966-2.208 5.331v0c-1.364 1.364-3.249 2.208-5.331 2.208-4.163 0-7.539-3.375-7.539-7.539 0-2.082 0.844-3.966 2.208-5.331v0zM25.211 9.584c0.345-0.326 0.559-0.786 0.559-1.296 0-0.984-0.798-1.782-1.782-1.782-0.474 0-0.904 0.185-1.224 0.487l0.001-0.001c-0.345 0.326-0.559 0.786-0.559 1.296 0 0.984 0.798 1.782 1.782 1.782 0.474 0 0.904-0.185 1.224-0.487l-0.001 0.001z"></path>
</symbol>
<symbol id="icon-twitter" viewBox="0 0 32 32">
<path stroke="#fcfcfb" style="stroke: var(--color1, #fcfcfb)" stroke-linejoin="round" stroke-linecap="round" stroke-miterlimit="4" stroke-width="2.6667" d="M32 5.344s-1.027 2.799-2.933 4.531c2.347 13.327-13.787 23.056-26.4 15.46 3.227 0.133 6.453-0.8 8.8-2.667-7.333-1.997-11-9.86-7.333-15.991 3.227 3.467 8.213 5.464 13.2 5.331-1.32-5.597 5.867-8.795 10.267-5.064 1.613 0 4.4-1.6 4.4-1.6z"></path>
</symbol>
<symbol id="icon-facebook" viewBox="0 0 32 32">
<path d="M0 16.089c0 7.955 5.777 14.569 13.333 15.911v-11.556h-4v-4.444h4v-3.556c0-4 2.577-6.221 6.223-6.221 1.155 0 2.4 0.177 3.555 0.355v4.089h-2.044c-1.956 0-2.4 0.977-2.4 2.223v3.111h4.267l-0.711 4.444h-3.556v11.556c7.556-1.341 13.333-7.955 13.333-15.911 0-8.849-7.2-16.089-16-16.089s-16 7.24-16 16.089z"></path>
</symbol>

<symbol id="icon-close-btn" viewBox="0 0 32 32">
<path d="M16 14.115l6.6-6.6 1.885 1.885-6.6 6.6 6.6 6.6-1.885 1.885-6.6-6.6-6.6 6.6-1.885-1.885 6.6-6.6-6.6-6.6 1.885-1.885 6.6 6.6z"></path>
</symbol>

<symbol id="icon-close" viewBox="0 0 32 32">
<path d="M26.667 7.303l-1.97-1.97-7.808 7.808-7.808-7.808-1.97 1.97 7.808 7.808-7.808 7.808 1.97 1.97 7.808-7.808 7.808 7.808 1.97-1.97-7.808-7.808 7.808-7.808z"></path>
</symbol>







<symbol id="send" viewBox="0 0 32 32">
<path fill="#7e6d53" style="fill: var(--color1, #7e6d53)" d="M29.106 15.591l-26.141-13.106c-0.106-0.053-0.228-0.066-0.344-0.038-0.266 0.066-0.431 0.334-0.366 0.603l2.694 11.006c0.041 0.166 0.162 0.3 0.325 0.353l4.616 1.584-4.612 1.584c-0.162 0.056-0.284 0.187-0.322 0.353l-2.7 11.022c-0.028 0.116-0.016 0.237 0.038 0.341 0.122 0.247 0.422 0.347 0.672 0.225l26.141-13.031c0.097-0.047 0.175-0.128 0.225-0.222 0.122-0.25 0.022-0.55-0.225-0.675zM5.338 25.822l1.572-6.425 9.225-3.166c0.072-0.025 0.131-0.081 0.156-0.156 0.044-0.131-0.025-0.272-0.156-0.319l-9.225-3.162-1.566-6.4 19.625 9.841-19.631 9.787z"></path>
</symbol>
<symbol id="gg_close" viewBox="0 0 32 32">
<path fill="#7e6d53" style="fill: var(--color1, #7e6d53)" d="M8.3 6.415c-0.251-0.243-0.588-0.377-0.938-0.374s-0.684 0.143-0.931 0.39c-0.247 0.247-0.387 0.582-0.39 0.931s0.131 0.686 0.374 0.938l7.7 7.7-7.701 7.7c-0.127 0.123-0.229 0.27-0.299 0.433s-0.107 0.338-0.108 0.515c-0.002 0.177 0.032 0.353 0.099 0.516s0.166 0.313 0.291 0.438c0.125 0.125 0.274 0.224 0.438 0.291s0.339 0.101 0.516 0.099c0.177-0.001 0.352-0.038 0.515-0.108s0.31-0.171 0.433-0.299l7.701-7.7 7.7 7.7c0.251 0.243 0.588 0.377 0.938 0.374s0.684-0.143 0.931-0.391c0.247-0.247 0.387-0.582 0.391-0.931s-0.131-0.686-0.374-0.938l-7.7-7.7 7.7-7.7c0.243-0.251 0.377-0.588 0.374-0.938s-0.143-0.684-0.391-0.931c-0.247-0.247-0.582-0.387-0.931-0.39s-0.686 0.131-0.938 0.374l-7.7 7.7-7.7-7.7z"></path>
</symbol>
    </defs>
</svg>